<svg width="110" height="92" viewBox="0 0 110 92" fill="none" xmlns="http://www.w3.org/2000/svg">
<path d="M110 -18H0V92H110V-18Z" fill="#F06326"/>
<path d="M65.5039 72.0169H55.7689L51.8841 61.9482H24.8223L38.2808 27.6777H47.7499L65.5039 72.0169ZM49.0204 54.4701L42.9099 38.0159L36.9186 54.4701H49.0204Z" fill="white"/>
<path d="M47.7912 64.3899H19.38V27.5601H10.4297V71.8626H50.8125L47.7912 64.3899Z" fill="white"/>
<path d="M99.021 52.5926C97.5751 50.6884 95.4974 49.3403 92.7877 48.5483C94.6499 47.7114 96.2298 46.3527 97.336 44.6367C98.4423 42.9207 99.0275 40.9209 99.021 38.8793C99.0464 37.0501 98.5757 35.2483 97.6589 33.6653C96.8188 32.1847 95.6558 30.9126 94.2562 29.9436C92.8666 29.0011 91.2869 28.3753 89.6289 28.1103C87.9092 27.8157 85.2936 27.6685 81.7822 27.6685H53.5195L56.0734 34.516H78.1357C82.114 34.516 84.52 34.5624 85.3535 34.6553C86.7652 34.824 87.823 35.3153 88.5399 36.122C89.2567 36.9286 89.6014 37.9773 89.6014 39.2716C89.6014 40.6228 89.1889 41.7081 88.3602 42.5386C87.5315 43.3691 86.404 43.8623 84.9557 44.0365C84.1564 44.1294 82.1122 44.1758 78.8232 44.1758H64.0575V61.0296L68.3824 71.9288H79.1385C84.8457 71.8921 88.4519 72.0901 89.9387 71.9288C92.322 71.6685 94.3185 70.9663 95.9484 69.815C97.5968 68.6388 98.9175 67.0612 99.7855 65.2316C100.705 63.3931 101.189 61.3674 101.199 59.3118C101.199 56.7402 100.473 54.5005 99.021 52.5926ZM88.0485 62.3093C87.2471 63.2022 86.1628 63.792 84.9777 63.9795C84.1619 64.15 82.2277 64.2343 79.1917 64.2343H71.3744V53.051H78.1889C82.0315 53.051 84.5273 53.2502 85.6762 53.6486C86.7411 53.9832 87.6687 54.6542 88.3199 55.5608C88.9304 56.4353 89.2274 57.5023 89.2274 58.7545C89.2274 60.2376 88.8387 61.422 88.0485 62.3001V62.3093Z" fill="white"/>
<path d="M9.5332 23.69V14.9102H16.2927V23.69H15.0699V15.8745H10.745V23.69H9.5332Z" fill="white" stroke="white" stroke-width="0.25"/>
<path d="M25.0486 22.7238V23.69H18.7383V14.9102H24.9111V15.8745H19.9611V18.6667H23.8918V19.5613H19.9593V22.7238H25.0486Z" fill="white" stroke="white" stroke-width="0.25"/>
<path d="M27.9787 23.69H26.7559V14.9102H30.2135C31.2976 14.9102 32.097 15.1748 32.6115 15.704C32.8542 15.939 33.0474 16.2202 33.1799 16.5309C33.3125 16.8416 33.3816 17.1757 33.3834 17.5135C33.391 17.8687 33.3195 18.2211 33.1739 18.5452C33.0284 18.8693 32.8124 19.1569 32.5419 19.3872C31.9821 19.876 31.2488 20.1205 30.3419 20.1205H27.9787V23.69ZM27.9787 19.213H30.2227C30.7298 19.2366 31.2274 19.0699 31.6179 18.7455C31.7919 18.5923 31.9296 18.4022 32.0209 18.1891C32.1122 17.976 32.1549 17.7452 32.1459 17.5135C32.1467 17.0772 31.9777 16.6577 31.6747 16.3438C31.3594 16.0004 30.9041 15.8287 30.3089 15.8287H27.9787V19.213Z" fill="white" stroke="white" stroke-width="0.25"/>
<path d="M41.2498 22.7238V23.69H34.9395V14.9102H41.1141V15.8745H36.1641V18.6667H40.0948V19.5613H36.1605V22.7238H41.2498Z" fill="white" stroke="white" stroke-width="0.25"/>
<path d="M42.9609 23.69V14.9102H47.9714V15.8745H44.1838V23.69H42.9609Z" fill="white" stroke="white" stroke-width="0.25"/>
<path d="M52.1655 23.8716C50.9127 23.8716 49.9349 23.4323 49.2322 22.5535C48.5294 21.6747 48.1792 20.5985 48.1817 19.325C48.1817 17.9964 48.5483 16.8964 49.2817 16.025C50.015 15.1535 50.9873 14.7202 52.1985 14.7251C53.4048 14.7251 54.3722 15.1529 55.1007 16.0085C55.8291 16.864 56.1958 17.9378 56.2007 19.2296C56.2236 20.4038 55.8488 21.5513 55.1373 22.4856C54.4272 23.4084 53.4366 23.8704 52.1655 23.8716ZM52.1948 22.977C52.5908 22.9894 52.9832 22.8991 53.334 22.7151C53.6848 22.531 53.982 22.2593 54.1968 21.9265C54.6784 21.2261 54.9192 20.3248 54.9192 19.2223C54.9192 18.0893 54.6698 17.2075 54.1712 16.5768C53.9402 16.272 53.6395 16.0269 53.2944 15.862C52.9493 15.6971 52.5698 15.6172 52.1875 15.629C51.7969 15.6188 51.41 15.7069 51.0624 15.8854C50.7148 16.0638 50.4177 16.3268 50.1983 16.6501C49.7107 17.3321 49.465 18.225 49.465 19.3286C49.465 20.4323 49.7143 21.2811 50.2093 21.9576C50.4294 22.2793 50.7262 22.5409 51.0729 22.7189C51.4196 22.8969 51.8052 22.9856 52.1948 22.977Z" fill="white" stroke="white" stroke-width="0.25"/>
<path d="M59.2542 23.69H58.0332V14.9102H61.4909C62.5725 14.9102 63.3707 15.1748 63.8852 15.704C64.1288 15.9384 64.3227 16.2194 64.4556 16.5302C64.5885 16.8411 64.6576 17.1754 64.6589 17.5135C64.6665 17.8687 64.595 18.2211 64.4494 18.5452C64.3039 18.8693 64.088 19.1569 63.8174 19.3872C63.2576 19.876 62.5243 20.1205 61.6174 20.1205H59.2542V23.69ZM59.2542 19.213H61.5C62.006 19.2364 62.5024 19.0696 62.8915 18.7455C63.0661 18.5926 63.2043 18.4026 63.296 18.1895C63.3876 17.9763 63.4305 17.7454 63.4214 17.5135C63.4213 17.0774 63.2524 16.6582 62.9502 16.3438C62.6349 16.0004 62.1802 15.8287 61.5862 15.8287H59.2542V19.213Z" fill="white" stroke="white" stroke-width="0.25"/>
<path d="M69.5833 23.8716C68.3318 23.8716 67.354 23.4323 66.65 22.5535C65.946 21.6747 65.5952 20.5985 65.5977 19.325C65.5977 17.9964 65.9643 16.8964 66.6977 16.025C67.431 15.1535 68.4033 14.7202 69.6145 14.7251C70.8196 14.7251 71.7864 15.1529 72.5148 16.0085C73.2433 16.864 73.61 17.9378 73.6148 19.2296C73.6372 20.4032 73.264 21.5501 72.5552 22.4856C71.8457 23.4078 70.8575 23.8716 69.5833 23.8716ZM69.6127 22.977C70.0086 22.9894 70.4011 22.8991 70.7519 22.7151C71.1027 22.531 71.3999 22.2593 71.6147 21.9265C72.0962 21.2261 72.3364 20.3248 72.3352 19.2223C72.3352 18.0893 72.0858 17.2075 71.5872 16.5768C71.3571 16.2714 71.0569 16.0259 70.712 15.8609C70.367 15.696 69.9875 15.6164 69.6053 15.629C69.2149 15.6181 68.828 15.7059 68.4806 15.8845C68.1332 16.063 67.8365 16.3263 67.618 16.6501C67.1291 17.3321 66.8847 18.225 66.8847 19.3286C66.8847 20.4054 67.1328 21.2818 67.629 21.9576C67.8489 22.279 68.1454 22.5405 68.4918 22.7185C68.8381 22.8964 69.2234 22.9853 69.6127 22.977Z" fill="white" stroke="white" stroke-width="0.25"/>
<path d="M74.7033 22.7238L77.5267 14.9102H79.5433L82.4143 22.7238H82.9863V25.5362H82.0238L81.8717 23.69H75.2607L75.1158 25.5362H74.1387V22.7238H74.7033ZM75.8437 22.7238H81.0962L78.7238 15.7773H78.216L75.8437 22.7238Z" fill="white" stroke="white" stroke-width="0.25"/>
<path d="M91.9785 23.69H90.6401L87.7215 18.839L85.4866 21.3488V23.69H84.2656V14.9102H85.4866V20.0013L89.9031 14.9102H91.2231L88.5758 17.9828L91.9785 23.69Z" fill="white" stroke="white" stroke-width="0.25"/>
<path d="M100.033 23.69H98.7864L97.7964 21.1233H94.1829L93.3121 23.69H92.2891L95.4607 14.9102H96.8431L100.033 23.69ZM97.5324 20.2983L96.0254 16.0817L94.5184 20.2983H97.5324Z" fill="white" stroke="white" stroke-width="0.25"/>
</svg>
